<?xml version="1.0" encoding="UTF-8"?><svg id="a" xmlns="http://www.w3.org/2000/svg" viewBox="0 0 234.41 267.37"><path d="M117.49,267.37c-3.06-.65-6.3-1.35-9.55-2.04-13.52-2.88-27.02-5.8-40.56-8.6-3.64-.75-6.31-2.29-8.13-5.79C40.54,215.06,21.77,179.2,2.85,143.42c-3.44-6.51-4.05-12.08-.26-19.1C21.62,88.97,39.95,53.26,58.89,17.86c1.65-3.09,5.58-6.05,9-6.91C83.86,6.94,100.01,3.64,116.13,.21c1.73-.37,3.68-.2,5.43,.16,15.98,3.29,31.96,6.57,47.87,10.15,2.15,.48,4.75,2.2,5.75,4.08,18.83,35.64,37.3,71.46,56.22,107.05,4.32,8.13,3.81,15.31-.32,23.11-18.23,34.45-36.37,68.95-54.32,103.54-2.72,5.24-6.3,7.91-12.11,9.01-14.39,2.73-28.66,6.06-42.98,9.15-1.29,.28-2.59,.56-4.17,.9ZM10.07,133.44c2.22,1.25,3.32,1.96,4.5,2.51,51.86,24,103.74,47.95,155.58,72.02,2.91,1.35,4.7,1.11,6.78-1.39,7.67-9.21,15.76-18.08,23.21-27.46,2.1-2.64,3.54-6.58,3.58-9.95,.3-24.16,.26-48.33,.03-72.49-.03-2.71-1.28-5.89-2.99-8.02-7.95-9.85-16.4-19.3-24.38-29.13-2.65-3.27-4.73-3.85-8.67-1.94-49.66,23.98-99.42,47.77-149.15,71.61-2.51,1.2-4.98,2.49-8.5,4.25Zm5.57,10.15c.65,1.74,.85,2.49,1.2,3.16,16.78,32.01,33.52,64.04,50.48,95.95,.99,1.87,3.57,3.56,5.7,4.05,13.29,3.09,26.65,5.94,40.04,8.57,3,.59,6.33,.46,9.35-.14,12.57-2.5,25.06-5.4,37.63-7.91,2.97-.59,4.12-1.98,4.72-4.79,1.53-7.16,3.09-14.34,5.18-21.35,1.28-4.32,.37-6.3-3.87-8.24-43.01-19.67-85.9-39.59-128.83-59.44-6.88-3.18-13.79-6.3-21.6-9.87Zm.22-20.97c1.42-.24,1.92-.21,2.32-.4,49.11-23.52,98.21-47.08,147.35-70.54,2.7-1.29,3.13-2.92,2.66-5.52-1.3-7.21-2.67-14.42-3.56-21.68-.41-3.32-1.96-4.38-4.93-4.99-12.39-2.54-24.73-5.34-37.13-7.86-2.37-.48-5.01-.49-7.38-.01-13.86,2.82-27.67,5.92-41.53,8.77-3.38,.69-5.52,2.29-7.13,5.41-8.07,15.7-16.36,31.28-24.56,46.92-8.57,16.35-17.12,32.72-26.1,49.89Zm195.53-15.48c-.28,.06-.56,.13-.84,.19v51.46c5.16-8.06,9.58-16.36,13.89-24.72,.38-.74,.33-2.03-.07-2.78-4.26-8.08-8.64-16.1-12.98-24.14Zm-37.65-71.96c-1.68,12.72,6.34,18.84,13.4,25.51-4.3-8.18-8.59-16.35-13.4-25.51Zm1.88,192.04c3.93-7.51,7.16-13.69,10.39-19.86-6.68,4.44-10.07,10.59-10.39,19.86Z"/></svg>