<?xml version="1.0" encoding="UTF-8"?><svg id="a" xmlns="http://www.w3.org/2000/svg" viewBox="0 0 234.5 266.95"><path d="M115.1,266.95c-3.57-.75-7.64-1.62-11.71-2.46-12.87-2.68-25.78-5.21-38.58-8.18-2.27-.53-4.97-2.4-6.04-4.42C40.39,217.15,22.5,182.15,3.87,147.54c-5.15-9.57-5.14-17.72-.08-27.16C22.12,86.17,40.02,51.74,57.97,17.33c2.29-4.39,5.51-6.63,10.33-7.59,14.69-2.94,29.3-6.29,43.98-9.29,2.68-.55,5.65-.63,8.31-.09,15.18,3.06,30.28,6.48,45.46,9.54,4.48,.9,7.26,3.03,9.39,7.14,18.05,34.73,36.3,69.36,54.47,104.03,1.01,1.92,1.87,3.91,2.9,5.81,2.51,4.65,2.09,8.82-.46,13.63-19.13,36.04-37.88,72.29-57.07,108.3-1.6,3.01-5.21,6.08-8.45,6.89-16.3,4.08-32.79,7.42-49.22,11-.65,.14-1.32,.14-2.52,.26Zm108.99-133.53c-2.29-1.29-3.39-2.01-4.56-2.55-51.86-24-103.74-47.95-155.58-72.01-2.9-1.34-4.69-1.14-6.79,1.37-7.67,9.21-15.76,18.08-23.21,27.46-2.1,2.64-3.55,6.58-3.59,9.94-.3,24.16-.26,48.33-.03,72.49,.03,2.71,1.27,5.89,2.98,8.02,7.95,9.85,16.4,19.3,24.38,29.13,2.64,3.26,4.71,3.88,8.66,1.96,45.45-21.98,91-43.74,136.52-65.57,6.71-3.22,13.41-6.48,21.21-10.25Zm-5.77-10.26c-.49-1.54-.59-2.17-.87-2.7-16.85-32.16-33.67-64.33-50.71-96.39-.99-1.86-3.58-3.53-5.72-4.03-13.29-3.09-26.65-5.93-40.04-8.58-2.85-.56-6-.48-8.86,.09-12.73,2.53-25.39,5.46-38.12,7.99-3,.6-4.08,2.05-4.68,4.83-1.59,7.32-3.23,14.64-5.3,21.84-1.14,3.96-.23,5.76,3.6,7.52,43.3,19.84,86.5,39.88,129.74,59.86,6.72,3.11,13.47,6.15,20.97,9.58Zm-.05,20.96c-1.52,.3-2.02,.29-2.42,.49-49.11,23.52-98.21,47.09-147.35,70.54-2.74,1.31-3.05,2.99-2.59,5.56,1.26,7.05,2.62,14.09,3.48,21.18,.41,3.39,1.71,4.8,5.05,5.46,12.41,2.47,24.73,5.34,37.14,7.82,2.52,.5,5.33,.39,7.87-.13,13.54-2.74,27.02-5.79,40.56-8.52,3.77-.76,6.05-2.58,7.82-6.02,10.84-21.01,21.89-41.92,32.88-62.86,5.71-10.89,11.42-21.79,17.57-33.52ZM23.53,108.02c-.26-.09-.51-.18-.77-.27-3.7,6.99-7.14,14.13-11.19,20.91-2.23,3.74-2.32,6.59-.02,10.38,4.07,6.71,7.47,13.84,11.15,20.79,.28-.11,.55-.23,.83-.34v-51.48Zm23.37,98.1c4.33,8.2,8.67,16.4,13.45,25.44,1.65-12.56-6.36-18.87-13.45-25.44ZM58.38,39.76c-3.76,7.18-7.03,13.42-10.93,20.87,7.42-5.6,10.69-11.84,10.93-20.87Z"/></svg>