<?xml version="1.0" encoding="UTF-8"?><svg id="a" xmlns="http://www.w3.org/2000/svg" viewBox="0 0 252.22 288.99"><path d="M252.15,144.43c0,22.32-.08,44.65,.06,66.97,.03,4.1-1.14,6.65-4.9,8.8-39.02,22.34-77.94,44.85-116.83,67.41-3.12,1.81-5.63,1.85-8.76,.03-39.17-22.73-78.39-45.39-117.67-67.95-3.08-1.77-3.97-3.92-3.96-7.25C.13,166.97,.08,121.48,0,76c0-3.3,.99-5.49,4.06-7.25C43.1,46.46,82.09,24.07,121.02,1.57c3.62-2.09,6.5-2.1,10.12-.01,38.93,22.49,77.91,44.88,116.95,67.17,3.28,1.87,4.13,4.25,4.12,7.72-.09,22.66-.04,45.31-.05,67.97Zm-126.07,77.23c23.58-41.59,46.73-82.42,70.15-123.7H55.92c23.49,41.42,46.61,82.18,70.16,123.7Zm77.62-117.5c-23.22,40.96-45.75,80.69-68.79,121.32,36.12-5.03,70.92-9.88,106.27-14.81-12.52-35.59-24.75-70.35-37.48-106.51Zm-86.66,121.16c-23.12-40.73-45.53-80.24-68.58-120.85-12.7,36.07-24.89,70.72-37.35,106.1,35.19,4.9,69.88,9.73,105.92,14.74ZM193.85,87.72c-22.91-25.84-45.15-50.92-67.77-76.43-22.63,25.52-44.86,50.59-67.77,76.43H193.85Zm27.11,136.75c-.12-.46-.23-.92-.35-1.38-29.88,4.15-59.75,8.3-89.57,12.44v40.83c30.44-17.57,60.18-34.73,89.91-51.89Zm-189.46-1.38c-.13,.45-.25,.9-.38,1.35,29.82,17.21,59.65,34.42,89.93,51.89v-40.8c-30.07-4.18-59.81-8.31-89.55-12.44Zm-21.8-40.34c.29,.08,.58,.15,.87,.23,10.22-29.03,20.44-58.06,30.81-87.52-10.69-4.72-20.95-9.25-31.68-13.99v101.28ZM210.6,95.4c10.5,29.77,20.78,58.92,31.06,88.07,.33-.09,.66-.19,.99-.28V81.28c-10.81,4.76-21.08,9.29-32.05,14.12ZM151.85,24.41c-.18,.23-.36,.46-.54,.7,.45,.61,.86,1.25,1.36,1.81,14,15.81,27.98,31.65,42.03,47.41,3.74,4.19,7.21,10.62,11.73,11.56,4.56,.95,10.29-3.6,15.48-5.82,4.79-2.05,9.53-4.21,15.18-6.72-29.15-16.74-57.19-32.84-85.24-48.94Zm-50.93,.97c-.21-.33-.41-.65-.62-.98-28.1,16.14-56.2,32.28-85.2,48.94,10.26,4.56,19.32,8.71,28.52,12.53,1.21,.5,3.71-.18,4.62-1.2,17.65-19.69,35.15-39.51,52.68-59.3Z"/></svg>