<?xml version="1.0" encoding="UTF-8"?><svg id="a" xmlns="http://www.w3.org/2000/svg" viewBox="0 0 216.29 217.23"><path d="M216.18,108.29c0,32.83,0,65.66,0,98.49,0,8.87-1.59,10.44-10.4,10.44-65.33,0-130.66,0-195.99,0-9.2,0-10.19-1.12-9.69-10.42,.26-4.82,.09-9.66,.09-14.5,0-59.5,0-118.99,0-178.49,0-1.17-.04-2.34,.02-3.5C.63,2.21,2.86,.07,10.95,.07c63.5,0,126.99,0,190.49,0,2.17,0,4.33-.02,6.5-.06,6.32-.13,8.35,1.91,8.35,8.29-.01,33.33,0,66.66,0,99.99-.03,0-.07,0-.1,0ZM12.12,11.73V204.91c2.97,.14,5.6,.38,8.23,.38,58.82,.02,117.64,.02,176.46,.01,7.53,0,7.56,0,7.56-7.82,0-58.65,.01-117.3-.02-175.96,0-3.25-.4-6.5-.61-9.8H12.12Z"/></svg>