<?xml version="1.0" encoding="UTF-8"?><svg id="a" xmlns="http://www.w3.org/2000/svg" viewBox="0 0 260.04 228.3"><path d="M129.92,228.18c-19.82,0-39.65-.11-59.47,.09-4.4,.04-7.24-1.5-9.36-5.19C40.93,188.18,20.67,153.33,.69,118.32c-1.1-1.93-.82-5.68,.35-7.71C21.45,75.08,42.12,39.7,62.65,4.24,64.89,.36,68.34,.13,72.08,.13c26.82,0,53.64,0,80.47,0,11.5,0,23,.26,34.48-.12,5.31-.17,8.33,1.51,11.1,6.22,19.43,33.02,39.09,65.9,58.96,98.66,3.84,6.33,3.97,11.67,.18,18.04-19.68,33.06-39.13,66.26-58.51,99.49-2.46,4.22-5.3,5.96-10.36,5.88-19.49-.31-38.98-.13-58.47-.12Zm-60.7-113.74c0,32.82-.01,65.63,0,98.45,0,6.66,1.03,7.23,6.77,3.88,56.71-33.02,113.4-66.06,170.11-99.09,4.92-2.87,4.95-4.16,.07-6.98-10.67-6.17-21.36-12.31-32.04-18.46C167.52,65.41,120.88,38.61,74.3,11.69c-3.82-2.21-4.74-.57-5.02,2.8-.11,1.32-.05,2.66-.05,4,0,31.98,0,63.97,0,95.95Zm-6.72,89.6V25.95c-1.04,1.5-1.44,2-1.76,2.55C44.65,56.14,28.59,83.81,12.39,111.39c-1.64,2.8-1.12,4.78,.34,7.29,15.83,27.23,31.56,54.5,47.34,81.76,.55,.96,1.24,1.84,2.44,3.59ZM240.36,100.14c.27-.24,.53-.47,.8-.71-.3-.71-.52-1.46-.91-2.11-16.66-27.89-33.28-55.8-50.14-83.56-1-1.64-3.94-2.97-5.99-2.98-31.15-.19-62.31-.14-93.47-.11-1.16,0-2.32,.31-4.76,.65,52.28,30.07,103.37,59.45,154.46,88.83ZM88.98,216.48c.09,.36,.19,.73,.28,1.09,.77,.08,1.55,.23,2.32,.23,31.31,.01,62.63-.05,93.94,.08,3.27,.01,4.66-1.54,6.11-4.01,15.98-27.31,32.05-54.56,48.07-81.85,.62-1.06,1.04-2.25,2.12-4.59-51.72,30.13-102.28,59.59-152.84,89.05Z"/></svg>