<?xml version="1.0" encoding="UTF-8"?><svg id="a" xmlns="http://www.w3.org/2000/svg" viewBox="0 0 181.73 209.94"><path d="M.02,106.01c0-31.15,0-62.31,0-93.46,0-1.5-.05-3,.03-4.5C.47-.18,3.83-2,10.91,2.14c54.61,32,109.23,63.99,163.84,95.99,1.01,.59,2.04,1.14,3.01,1.78,5.4,3.51,5.3,7.77-.32,11.03-18.16,10.52-36.35,20.99-54.52,31.49-37.93,21.92-75.85,43.86-113.77,65.79-5.94,3.44-9.08,1.71-9.1-5.26C0,170.65,.03,138.33,.02,106.01ZM10,12.65V196.73c52.91-30.59,105.09-60.77,158.11-91.42C114.93,74.14,62.83,43.61,10,12.65Z"/></svg>