<?xml version="1.0" encoding="UTF-8"?><svg id="a" xmlns="http://www.w3.org/2000/svg" viewBox="0 0 254.75 266.94"><path d="M254.65,133.14c0,12.66,.13,25.32-.11,37.98-.05,2.47-.95,5.31-2.38,7.31-14.43,20.18-29.01,40.25-43.69,60.25-1.28,1.75-3.39,3.34-5.43,4.02-24.49,8.13-49.03,16.12-73.61,23.97-1.72,.55-3.99,.13-5.79-.47-23.69-7.92-47.38-15.86-70.97-24.07-2.6-.91-5.1-3.17-6.79-5.44-14.8-19.91-29.45-39.93-43.96-60.06-1.32-1.83-1.8-4.62-1.81-6.97-.13-23.99-.17-47.98,.05-71.97,.03-3.11,1.01-6.71,2.78-9.22,14.41-20.4,29.02-40.66,43.83-60.77,1.83-2.48,5-4.55,7.97-5.51C77.55,14.79,100.41,7.56,123.37,.66c3.4-1.02,7.72-.82,11.14,.3,22.79,7.45,45.48,15.21,68.11,23.13,2.62,.92,5.24,3.01,6.91,5.26,14.39,19.39,28.62,38.9,42.71,58.5,1.43,1.99,2.31,4.84,2.36,7.3,.23,12.66,.11,25.32,.11,37.98-.02,0-.04,0-.06,0Zm-127.31,69.65c14.99,0,29.97-.13,44.95,.09,4.06,.06,6.11-.93,7.46-5.13,9.17-28.69,18.57-57.31,28.15-85.87,1.32-3.94,.39-5.83-2.81-8.12-24.75-17.74-49.41-35.61-73.96-53.63-3.13-2.3-5.13-2.19-8.19,.05-24.32,17.78-48.72,35.43-73.23,52.95-3.08,2.2-3.81,4.1-2.63,7.75,9.46,29.12,18.78,58.29,27.93,87.52,1.12,3.59,2.85,4.52,6.38,4.48,15.32-.17,30.64-.07,45.95-.08Zm114.83-110.69c-13.98-19.17-27.37-37.62-40.92-55.95-1.07-1.45-3.17-2.37-4.98-2.99-19.51-6.74-39.06-13.37-58.6-20.02-1.83-.62-3.7-1.12-6.21-1.88,0,10.32-.11,19.94,.13,29.56,.03,1.29,1.52,2.87,2.73,3.76,25.56,18.63,51.16,37.2,76.82,55.69,1.17,.84,3.18,1.51,4.42,1.1,8.67-2.83,17.24-5.96,26.61-9.27Zm-229.25,.67c9.13,2.97,17.31,5.76,25.6,8.19,1.42,.42,3.61-.25,4.9-1.18,26.38-18.94,52.68-37.97,78.95-57.06,1.08-.79,2.36-2.24,2.38-3.41,.2-9.1,.11-18.21,.11-27.57-1.39,.2-2.23,.21-3,.45-20.97,6.57-41.96,13.1-62.88,19.86-2.01,.65-3.93,2.46-5.26,4.21-5.12,6.77-9.99,13.73-14.95,20.62-8.45,11.73-16.91,23.46-25.86,35.87ZM59.11,232.81c1.41,.65,2.11,1.05,2.87,1.31,20.64,6.99,41.27,14.03,61.97,20.84,2,.66,4.62,.45,6.68-.2,20.63-6.49,41.2-13.16,61.78-19.8,1.35-.44,2.64-1.08,4.43-1.83-5.91-7.81-11.42-15.27-17.2-22.53-.81-1.02-2.89-1.44-4.39-1.45-31.79-.08-63.58-.07-95.36-.02-1.39,0-3.4,.17-4.08,1.05-5.63,7.33-11.01,14.85-16.7,22.62Zm143.15-3.21c.66-1.19,.92-1.82,1.31-2.35,12.81-17.65,25.69-35.25,38.37-52.98,1.23-1.72,1.78-4.29,1.8-6.48,.13-21.48,.09-42.97,.06-64.45,0-1.4-.22-2.8-.4-4.85-9.13,3.22-17.76,6.18-26.3,9.37-.99,.37-1.87,1.84-2.24,2.98-10.07,30.51-20.07,61.04-30.01,91.59-.41,1.27-.6,3.22,.07,4.15,5.44,7.5,11.12,14.83,17.33,23.01ZM11.24,99c-.17,1.36-.36,2.14-.36,2.93-.02,21.49-.14,42.98,.13,64.46,.04,2.91,1.48,6.17,3.2,8.62,8.24,11.71,16.8,23.19,25.23,34.76,4.65,6.37,9.27,12.76,14.24,19.6,5.34-7.36,10.29-13.83,14.77-20.61,1.15-1.74,1.64-4.73,1.03-6.7-9.44-30.19-19.09-60.32-28.78-90.43-.46-1.44-1.49-3.38-2.7-3.81-8.75-3.09-17.62-5.85-26.76-8.81Z"/></svg>